<svg width="24" height="24" viewBox="0 0 24 24" fill="none" xmlns="http://www.w3.org/2000/svg">
<path d="M19.687 22.0118C19.564 22.4945 19.2969 22.8965 18.9523 23.1789C18.6043 23.4636 18.1789 23.6253 17.7407 23.6253C17.5966 23.6253 17.4501 23.6077 17.3025 23.5679C16.7892 23.439 16.3662 23.0968 16.1143 22.6047C15.8776 22.1372 15.8202 21.5876 15.9549 21.0568C16.2397 19.9354 17.3107 19.2358 18.3395 19.4995C18.8527 19.6319 19.2722 19.9729 19.5242 20.465C19.7644 20.9326 19.8206 21.4821 19.6859 22.0094L19.687 22.0118Z" fill="#B21F78"/>
<path d="M23.9804 5.14873L21.2807 15.9478C21.2209 16.1903 21.0135 16.3708 20.7674 16.3978C20.744 16.4036 20.7229 16.4036 20.6983 16.4036H7.19946C7.17602 16.4036 7.15142 16.4036 7.12798 16.3978C6.91472 16.3743 6.73192 16.236 6.65107 16.0404C6.62998 15.9982 6.61826 15.9501 6.60889 15.9021L6.10738 12.9024C6.07692 12.7289 6.12496 12.5485 6.23979 12.4137C6.35346 12.2813 6.52219 12.204 6.69913 12.204H12.0717C12.8181 12.204 13.4731 11.7001 13.6641 10.9806C13.7989 10.4791 13.6946 9.95767 13.3793 9.5499C13.0642 9.13861 12.5872 8.90543 12.0717 8.90543L5.94794 8.90426C5.65382 8.90426 5.40542 8.691 5.35737 8.40276L4.81132 5.12654V5.1031L4.29809 2.61075L1.63707 1.53036C1.32772 1.40733 1.18126 1.05696 1.3043 0.749957C1.43085 0.440609 1.77771 0.294147 2.08703 0.419511L5.04452 1.61941C5.23083 1.6944 5.36794 1.85611 5.40777 2.05414L5.89052 4.40239H23.4003C23.4307 4.40239 23.4577 4.40591 23.487 4.40825C23.6405 4.42934 23.7776 4.51019 23.8737 4.63323C23.9873 4.77736 24.0272 4.96953 23.9815 5.14646L23.9804 5.14873Z" fill="#B21F78"/>
<path d="M19.8943 18.8035H7.79932C7.46888 18.8035 7.19938 18.534 7.19938 18.2036C7.19938 17.8731 7.46888 17.6036 7.79932 17.6036H19.8943C20.2247 17.6036 20.4942 17.8731 20.4942 18.2036C20.4942 18.534 20.2247 18.8035 19.8943 18.8035Z" fill="#B21F78"/>
<path d="M12.7876 22.0118C12.6646 22.4945 12.3974 22.8965 12.0529 23.1789C11.7049 23.4636 11.2795 23.6253 10.8413 23.6253C10.6972 23.6253 10.5507 23.6077 10.4031 23.5679C9.88984 23.439 9.46683 23.0968 9.2149 22.6047C8.9782 22.1372 8.92078 21.5876 9.05554 21.0568C9.34029 19.9354 10.4113 19.2358 11.4401 19.4995C11.9533 19.6319 12.3728 19.9729 12.6248 20.465C12.865 20.9326 12.9212 21.4821 12.7865 22.0094L12.7876 22.0118Z" fill="#B21F78"/>
<path d="M3.14973 7.8545H0.899922C0.569476 7.8545 0.299974 7.58499 0.299974 7.25455C0.299974 6.9241 0.569476 6.6546 0.899922 6.6546H3.14973C3.48017 6.6546 3.74967 6.9241 3.74967 7.25455C3.74967 7.58499 3.48017 7.8545 3.14973 7.8545Z" fill="#B21F78"/>
<path d="M4.34962 14.1539H2.09982C1.76937 14.1539 1.49987 13.8844 1.49987 13.554C1.49987 13.2236 1.76937 12.9541 2.09982 12.9541H4.34962C4.68007 12.9541 4.94957 13.2236 4.94957 13.554C4.94957 13.8844 4.68007 14.1539 4.34962 14.1539Z" fill="#B21F78"/>
<path d="M11.351 11.3042H0.599948C0.269502 11.3042 0 11.0347 0 10.7042C0 10.3738 0.269502 10.1043 0.599948 10.1043H11.351C11.6815 10.1043 11.951 10.3738 11.951 10.7042C11.951 11.0347 11.6815 11.3042 11.351 11.3042Z" fill="#B21F78"/>
</svg>
