<svg width="24" height="24" viewBox="0 0 24 24" fill="none" xmlns="http://www.w3.org/2000/svg">
<path d="M12 0C8.81776 0 5.76548 1.26453 3.51498 3.51498C1.26458 5.76539 0 8.81777 0 12C0 15.1822 1.26453 18.2345 3.51498 20.485C5.76539 22.7354 8.81776 24 12 24C15.1822 24 18.2345 22.7355 20.485 20.485C22.7365 18.2346 24 15.1822 24 12C23.9967 8.81894 22.7311 5.76853 20.4817 3.51827C18.2313 1.26897 15.1813 0.00328986 12 0ZM18.8152 20.1899V18.9242C18.8163 17.7886 18.5332 16.6694 17.9913 15.6703H17.9891L17.9119 15.5359C17.2499 14.3882 16.2696 13.4563 15.0897 12.8526C15.0754 12.846 15.0622 12.8372 15.049 12.8306C14.8815 12.7469 14.7108 12.6697 14.5368 12.5992L14.0609 12.4076L14.4894 12.1245C15.1811 11.6696 15.7352 11.0329 16.091 10.285C16.4468 9.53814 16.59 8.70649 16.5074 7.88266C16.493 7.73836 16.471 7.59518 16.4424 7.45418C16.4358 7.42224 16.4269 7.39029 16.4203 7.35835C16.395 7.24379 16.3664 7.13034 16.3322 7.01907C16.3245 6.99484 16.3168 6.97171 16.3091 6.94747C16.2661 6.81859 16.2199 6.68971 16.1648 6.56416L16.1615 6.55645L16.1604 6.55535C16.0998 6.41435 16.0304 6.27667 15.9555 6.14228L15.8718 5.99358V5.99247C15.1481 4.79734 13.9122 4.00314 12.5232 3.84232C12.348 3.82249 12.1707 3.81258 11.9944 3.81258C10.8819 3.80927 9.80794 4.22014 8.98164 4.96586C7.933 5.90215 7.37894 7.27353 7.48248 8.67565C7.58712 10.0779 8.33615 11.3524 9.51147 12.1244L9.93995 12.4063L9.4641 12.598C8.19847 13.1014 7.11349 13.9738 6.35001 15.1018C5.58667 16.2309 5.18021 17.5626 5.1846 18.9242V20.1898C2.9232 18.3095 1.53967 15.5788 1.36038 12.6443C1.17973 9.70996 2.22065 6.83063 4.23524 4.68916C6.24991 2.54671 9.05982 1.33304 11.9998 1.33304C14.9397 1.33304 17.7498 2.5469 19.7643 4.68916C21.779 6.83051 22.8199 9.70996 22.6404 12.6443C22.4597 15.5786 21.0762 18.3094 18.815 20.1898L18.8152 20.1899Z" fill="#B21F78"/>
</svg>
